<svg xmlns="http://www.w3.org/2000/svg" width="156" height="70" viewBox="0 0 156 70"><g><g><g><g><path fill="#fff" d="M150.226 15.555c.176 0 .878-.289 1.113-.347l4.171-.347.41-.346-1.113-.347c-.41-.116-4.523-.925-4.933-1.098-.76-.29-1.23-1.04-2.167-1.04-.293 0-.586-.059-.703.346-.351 0-.644-.057-.996-.057-.955-.032-1.956-.062-2.976-.079a.917.917 0 0 0-.386-.004c-2.554-.03-5.212.049-7.593.487-.762.115-1.524.289-1.524 1.098 0 .751 1.816 2.138 2.578 2.138h6.8c2.622 5.618 9.439 16.792 2.274 29.244-5.568 9.676-16.497 9.876-21.151 8.99-7.574-1.442-11.313-2.82-17.812-6.19-4.08-2.118 5.67 5.549 17.065 8.181 6.446 1.49 21.442 4.484 28.722-6.535 6.507-9.846 2.037-19.31-3.676-30.361a50.476 50.476 0 0 0-1.87-3.329h3.767z"/></g><g><path fill="#fff" d="M142.647 3.378c0 1.81-1.47 3.276-3.282 3.276a3.28 3.28 0 0 1-3.282-3.276A3.28 3.28 0 0 1 139.365.1a3.28 3.28 0 0 1 3.282 3.277"/></g><g><path fill="#fff" d="M9.405 37.903v-.588C4.485 33.46.231 22.647.231 16.063c3.331 0 4.972 5.032 6.048 7.441.256.696 2.819 6.53 3.126 7.28.205.428 1.39.689 1.39.689h.36l3.12-7.273c.82-1.606 3.485-6.263 5.227-6.263 1.076 0 2.204.535 2.82 1.499l.824 1.9c0 4.657-4.687 10.974-7.044 14.56-.308.535-2.135 2.917-2.135 3.4v.213c0 .322.308 2.998.308 3.266.102 1.338.666 7.44.717 8.725.051.964-.256 1.874-1.23 1.874-4.357 0-4.715-6.05-4.715-9.046 0-2.249.358-4.337.358-6.425"/></g><g><path fill="#fff" d="M25.556 44.548H25.3c-.718 0-2.153 0-2.153-.819 0-1.125 7.483-2.865 7.944-3.019-.05-1.023-.05-5.628 0-6.652.103-2.61 1.743-15.248 4.408-15.248 1.179 0 2.511.205 3.536.972 3.434 2.661 5.536 7.931 7.33 11.769.717 1.587 3.382 7.368 3.792 8.187.257.665 1.64 3.991 1.897 4.759.102.256.307 1.177.307 1.279 0 .41-.41 1.484-.922 1.637-1.18.256-4.203-5.065-4.767-6.089-.82-1.33-3.024-5.321-3.229-5.68-.871-1.79-5.125-10.233-5.997-12.075-1.23 1.74-1.486 7.214-1.588 9.926v.563c-.052.819.102 4.503.102 5.27 2.255 0 4.356-.818 6.56-.818h.616c-2.41 1.33-5.126 2.047-7.586 3.48l.308 5.73v1.024c-4.51 0-3.742-5.526-4.767-5.526-1.845 0-3.639 1.33-5.535 1.33"/></g><g><path fill="#fff" d="M64.69 27.047c-.103.409-.615 3.428-.667 3.837l-.922 4.76c-1.896 7.419-2.46 8.903-3.742 8.903-.307 0-.922.102-1.076-.358V41.22c0-4.606.513-9.108 1.64-13.509.154-.563 1.23-4.35 1.589-5.424l.615-1.535c0-.153-.205-.818-.307-.972h.307c1.076 0 2.665.563 3.178 1.586.102.154.256 1.433.307 1.586.513 1.74 1.897 3.224 2.87 4.76 2.717 4.246 5.434 9.516 8.919 13.303 0-.92.205-5.373.307-6.345 0-.512.257-2.712.308-3.121.205-1.638 1.076-7.215 1.281-7.982.154-.717.974-4.299 1.282-5.066.256-.87.563-1.587 1.588-1.587.974 0 1.948 1.177 2.512 1.894l.307.358c.513.614.359 2.405.359 2.916 0 4.862-.923 9.671-1.589 14.532-.102.614-.051 9.825-2.05 9.825-5.945 0-14.146-16.477-16.709-20.007-.102.102-.307.512-.307.614"/></g><g><path fill="#fff" d="M90.518 44.548h-.256c-.718 0-2.153 0-2.153-.819 0-1.125 7.484-2.865 7.944-3.019-.05-1.023-.05-5.628 0-6.652.103-2.61 1.743-15.248 4.408-15.248 1.18 0 2.511.205 3.537.972 3.434 2.661 5.535 7.931 7.329 11.769.717 1.587 3.383 7.368 3.793 8.187.256.665 1.64 3.991 1.896 4.759.103.256.308 1.177.308 1.279 0 .41-.41 1.484-.923 1.637-1.179.256-4.203-5.065-4.766-6.089-.82-1.33-3.025-5.321-3.23-5.68-.87-1.79-5.125-10.233-5.996-12.075-1.23 1.74-1.486 7.214-1.589 9.926v.563c-.051.819.103 4.503.103 5.27 2.255 0 4.356-.818 6.56-.818h.615c-2.409 1.33-5.126 2.047-7.586 3.48l.308 5.73v1.024c-4.51 0-3.742-5.526-4.767-5.526-1.845 0-3.639 1.33-5.535 1.33"/></g><g><path fill="#fff" d="M127.074 30.629h5.93c1.785 0 4.341 1.586 5.45 2.916-1.736 2.046-3.954 2.098-6.51 2.098-2.893 0-5.208-.256-6.22-3.428v-1.177c.337-.154 1.06-.41 1.35-.41"/></g><g><path fill="#fff" d="M1.83 60.047a3.622 3.622 0 0 1 .791-.03c.08.006.162.016.242.03l-1.115 6.367h2.717c-.013.175-.03.334-.05.475-.02.142-.061.287-.122.436H.552z"/></g><g><path fill="#fff" d="M6.99 65.26c.02.452.136.793.345 1.022.21.23.534.345.974.345.27 0 .527-.033.77-.097.244-.064.463-.133.66-.207.06.1.104.222.131.364.027.141.04.283.04.425a2.475 2.475 0 0 1-.37.132 5.787 5.787 0 0 1-.937.177 4.434 4.434 0 0 1-.447.025c-.399 0-.734-.052-1.008-.157a1.736 1.736 0 0 1-.67-.435 1.676 1.676 0 0 1-.375-.658 2.793 2.793 0 0 1-.116-.825c0-.411.069-.818.207-1.22.139-.402.339-.76.599-1.078.26-.317.57-.573.933-.769a2.5 2.5 0 0 1 1.211-.294c.446 0 .8.11 1.06.33.26.219.39.51.39.875 0 .297-.073.555-.218.775a1.876 1.876 0 0 1-.603.561c-.257.156-.56.284-.907.385-.349.1-.729.182-1.141.243zm.64-.85c.344-.062.63-.13.856-.208a2.33 2.33 0 0 0 .542-.253.844.844 0 0 0 .284-.289.697.697 0 0 0 .082-.334.49.49 0 0 0-.163-.38c-.108-.098-.264-.146-.466-.146-.217 0-.416.048-.598.147a1.857 1.857 0 0 0-.492.384c-.146.159-.269.341-.37.547-.102.206-.18.417-.233.632z"/></g><g><path fill="#fff" d="M12.842 64.885a3.46 3.46 0 0 1-.325-.152 1.17 1.17 0 0 1-.552-.592 1.279 1.279 0 0 1-.097-.521c0-.25.051-.474.152-.673.102-.2.244-.368.427-.506.182-.139.4-.244.653-.319a3 3 0 0 1 .847-.112c.277 0 .54.03.79.092.25.06.447.128.589.202a2.498 2.498 0 0 1-.294.76 3.17 3.17 0 0 0-.477-.168 2.37 2.37 0 0 0-.649-.086c-.29 0-.532.05-.725.152-.192.102-.288.277-.288.526 0 .155.045.285.136.39.092.105.256.205.492.298l.223.102c.128.06.262.125.4.192.14.068.264.15.376.248.111.098.203.216.274.354.07.139.106.31.106.512 0 .324-.06.602-.182.835a1.622 1.622 0 0 1-.502.577c-.213.151-.46.265-.74.339-.281.074-.583.111-.908.111-.27 0-.536-.023-.796-.07a2.876 2.876 0 0 1-.644-.183 2.41 2.41 0 0 1 .076-.425c.037-.135.093-.263.167-.384.176.074.383.133.62.176.236.045.456.066.658.066.17 0 .328-.015.477-.045.148-.03.277-.078.385-.142a.724.724 0 0 0 .258-.258.777.777 0 0 0 .097-.405c0-.21-.06-.366-.182-.47a1.81 1.81 0 0 0-.518-.289z"/></g><g><path fill="#fff" d="M20.212 62.93h-.63c0-.134.01-.266.026-.394a1.79 1.79 0 0 1 .107-.405h1.622l-.913 5.193c-.074.013-.16.022-.258.025a6.972 6.972 0 0 1-.492 0 1.701 1.701 0 0 1-.233-.025zm.04-2.428c.034-.176.078-.355.132-.537a4.34 4.34 0 0 1 1.156 0 3.705 3.705 0 0 1-.061.562 4.913 4.913 0 0 1-.132.531 2.706 2.706 0 0 1-.304.026 7.734 7.734 0 0 1-.558 0 2.118 2.118 0 0 1-.284-.026c0-.195.017-.38.051-.556z"/></g><g><path fill="#fff" d="M23.233 64.318c.075-.404.134-.752.178-1.042.044-.29.066-.543.066-.76a1.76 1.76 0 0 0-.03-.394 3.195 3.195 0 0 1 .487-.04 2.901 2.901 0 0 1 .455.04c.014.054.024.116.03.187a3.039 3.039 0 0 1-.015.643 8.194 8.194 0 0 1-.055.334c.067-.142.162-.289.284-.44a2.339 2.339 0 0 1 .968-.714c.2-.08.41-.122.633-.122.406 0 .722.108.949.324.226.216.34.55.34 1.002 0 .102-.008.215-.021.34-.014.125-.03.244-.05.36l-.579 3.289a3.608 3.608 0 0 1-.517.04c-.074 0-.157-.003-.248-.01a1.924 1.924 0 0 1-.238-.03l.547-3.118a3.484 3.484 0 0 0 .06-.577c0-.27-.061-.462-.187-.577-.125-.115-.292-.172-.502-.172a.996.996 0 0 0-.537.167 1.842 1.842 0 0 0-.497.491 3.674 3.674 0 0 0-.42.8 5.756 5.756 0 0 0-.3 1.093l-.334 1.893a3.629 3.629 0 0 1-.517.04c-.074 0-.157-.003-.249-.01a1.93 1.93 0 0 1-.238-.03z"/></g><g><path fill="#fff" d="M29.935 62.931h-.842c0-.135.009-.265.026-.39.016-.124.052-.26.106-.41h.842l.05-.293c.115-.682.34-1.191.675-1.529.334-.337.806-.505 1.414-.505a2.57 2.57 0 0 1 .811.121c-.04.175-.083.322-.126.44-.045.118-.1.242-.168.37a2.3 2.3 0 0 0-.233-.071 1.154 1.154 0 0 0-.284-.03c-.142 0-.27.018-.385.055a.77.77 0 0 0-.31.192c-.09.091-.17.217-.238.375-.068.158-.121.36-.162.602a1.07 1.07 0 0 0-.03.137c-.007.044-.017.09-.03.136h1.247c0 .142-.01.274-.026.395a2.001 2.001 0 0 1-.106.405h-1.248l-.78 4.423c-.082.453-.181.834-.3 1.145a2.35 2.35 0 0 1-.44.754 1.53 1.53 0 0 1-.614.415 2.406 2.406 0 0 1-.816.126c-.149 0-.29-.012-.426-.035a1.826 1.826 0 0 1-.355-.097c.027-.155.06-.295.102-.42a2.05 2.05 0 0 1 .162-.369 1.397 1.397 0 0 0 .907.03.688.688 0 0 0 .33-.242c.095-.122.18-.292.258-.512.078-.22.147-.504.208-.855z"/></g><g><path fill="#fff" d="M34.864 67.446c-.628 0-1.101-.173-1.42-.521-.317-.348-.476-.838-.476-1.473 0-.37.058-.76.173-1.169.115-.408.292-.78.532-1.113.24-.334.54-.611.902-.83.362-.22.79-.33 1.283-.33.635 0 1.112.176 1.43.527.317.35.476.844.476 1.478 0 .378-.057.769-.172 1.174-.115.405-.291.775-.528 1.109a2.903 2.903 0 0 1-.902.825c-.365.215-.797.323-1.298.323m.102-.8c.317 0 .59-.086.816-.257.226-.173.41-.39.552-.654.142-.263.247-.547.315-.855.067-.307.101-.595.101-.865 0-.384-.086-.678-.258-.88-.173-.203-.418-.304-.735-.304-.318 0-.588.087-.812.263a2.081 2.081 0 0 0-.547.658 3.148 3.148 0 0 0-.31.855 4.196 4.196 0 0 0-.096.855c0 .385.083.678.249.881.165.202.407.304.725.304"/></g><g><path fill="#fff" d="M40.359 64.885a3.46 3.46 0 0 1-.325-.152 1.17 1.17 0 0 1-.552-.592 1.279 1.279 0 0 1-.097-.521c0-.25.051-.474.152-.673.102-.2.244-.368.426-.506.183-.139.4-.244.654-.319a3 3 0 0 1 .847-.112c.277 0 .54.03.79.092.25.06.447.128.589.202a2.498 2.498 0 0 1-.294.76 3.17 3.17 0 0 0-.477-.168 2.37 2.37 0 0 0-.649-.086c-.29 0-.532.05-.725.152-.192.102-.289.277-.289.526 0 .155.046.285.137.39.091.105.256.205.492.298l.223.102c.128.06.262.125.4.192.14.068.264.15.376.248.11.098.202.216.273.354.072.139.107.31.107.512 0 .324-.061.602-.183.835a1.622 1.622 0 0 1-.501.577c-.213.151-.46.265-.74.339-.281.074-.584.111-.908.111-.27 0-.536-.023-.796-.07a2.876 2.876 0 0 1-.644-.183 2.41 2.41 0 0 1 .076-.425c.037-.135.093-.263.167-.384.176.074.382.133.619.176.236.045.456.066.66.066.168 0 .327-.015.476-.045.148-.03.277-.078.385-.142a.724.724 0 0 0 .258-.258.777.777 0 0 0 .097-.405c0-.21-.061-.366-.183-.47a1.81 1.81 0 0 0-.517-.289z"/></g><g><path fill="#fff" d="M49.93 66.263a3.076 3.076 0 0 1-.3.41 2.57 2.57 0 0 1-.405.38c-.152.115-.321.21-.507.284a1.609 1.609 0 0 1-.603.111c-.446 0-.783-.148-1.009-.445-.227-.297-.34-.699-.34-1.205 0-.48.075-.945.224-1.398a3.72 3.72 0 0 1 .659-1.21 3.28 3.28 0 0 1 1.084-.856c.433-.216.933-.324 1.501-.324.25 0 .497.02.74.06.244.042.463.089.66.143l-1.319 7.503a2.53 2.53 0 0 1-.253.031c-.095.006-.176.01-.244.01-.074 0-.157-.004-.248-.01a2.555 2.555 0 0 1-.249-.03zm.61-3.362a1.321 1.321 0 0 0-.247-.04 4.098 4.098 0 0 0-.3-.01 1.78 1.78 0 0 0-.909.232 2.316 2.316 0 0 0-.69.617c-.193.256-.34.548-.441.875a3.368 3.368 0 0 0-.152 1.007c0 .323.059.576.177.758.119.183.29.273.513.273.21 0 .412-.067.609-.202.196-.135.375-.322.537-.562.163-.238.304-.518.422-.84a6.3 6.3 0 0 0 .279-1.025z"/></g><g><path fill="#fff" d="M53.692 62.132a3.635 3.635 0 0 1 .517-.04 3.054 3.054 0 0 1 .486.04l-.547 3.118c-.04.216-.061.408-.061.578 0 .27.062.461.187.576.126.115.293.172.502.172a.991.991 0 0 0 .538-.167 1.84 1.84 0 0 0 .497-.49c.155-.217.295-.484.42-.8.125-.318.225-.682.3-1.094l.334-1.893a3.438 3.438 0 0 1 .766-.03c.091.007.17.017.238.03l-.538 3.007c-.074.405-.133.752-.177 1.042-.044.29-.066.543-.066.76a3.108 3.108 0 0 0 .02.394 2.873 2.873 0 0 1-.705.03 1.977 1.977 0 0 1-.228-.03 1.823 1.823 0 0 1-.04-.465c0-.128.008-.25.025-.364.017-.116.036-.227.056-.335a2.27 2.27 0 0 1-.284.44 2.348 2.348 0 0 1-.968.714c-.2.08-.41.122-.634.122-.405 0-.721-.108-.948-.324-.227-.216-.34-.55-.34-1.002 0-.102.007-.215.021-.34.013-.124.03-.244.05-.359z"/></g><g><path fill="#fff" d="M60.557 60.056a2.84 2.84 0 0 1 .496-.042c.088 0 .176.004.264.01.088.008.169.017.243.031l-1.003 2.257c-.095.02-.184.033-.27.036a5.536 5.536 0 0 1-.486 0 .99.99 0 0 1-.228-.036z"/></g><g><path fill="#fff" d="M63.01 62.93h-.629c0-.134.009-.266.026-.394a1.79 1.79 0 0 1 .106-.405h1.623l-.913 5.193c-.074.013-.16.022-.258.025a6.983 6.983 0 0 1-.493 0 1.701 1.701 0 0 1-.233-.025zm.04-2.428c.034-.176.078-.355.132-.537a4.322 4.322 0 0 1 1.156 0 3.705 3.705 0 0 1-.06.562 4.913 4.913 0 0 1-.132.531 2.706 2.706 0 0 1-.305.026 7.734 7.734 0 0 1-.557 0 2.118 2.118 0 0 1-.284-.026c0-.195.017-.38.05-.556z"/></g><g><path fill="#fff" d="M66.345 61.988c.068-.378.12-.703.157-.977.037-.273.06-.517.066-.733v-.193a2.1 2.1 0 0 0-.01-.182c.074-.014.164-.023.269-.03a3.038 3.038 0 0 1 .735.03c.013.06.02.122.02.182v.193c0 .074-.005.163-.015.268-.01.105-.022.214-.036.329-.013.114-.03.232-.05.354-.02.122-.04.237-.061.344l-.791 4.272c-.02.115-.03.206-.03.273a.61.61 0 0 0 .045.258c.03.064.07.112.117.142.047.03.1.049.157.056a1.262 1.262 0 0 0 .375-.01 2.7 2.7 0 0 0 .198-.04 1.922 1.922 0 0 1 .086.703.466.466 0 0 0-.005.065 1.888 1.888 0 0 1-.37.076 3.73 3.73 0 0 1-.431.026c-.176 0-.337-.017-.481-.051a.878.878 0 0 1-.376-.182.851.851 0 0 1-.243-.35 1.471 1.471 0 0 1-.086-.541c0-.128.013-.263.04-.405l.081-.415z"/></g><g><path fill="#fff" d="M72.356 64.318c.075-.404.134-.752.178-1.042.044-.29.066-.543.066-.76a1.76 1.76 0 0 0-.03-.394 3.195 3.195 0 0 1 .487-.04 2.901 2.901 0 0 1 .455.04c.014.054.024.116.03.187a3.039 3.039 0 0 1-.014.643 7.715 7.715 0 0 1-.057.334c.068-.142.163-.289.285-.44a2.339 2.339 0 0 1 .968-.714c.2-.08.41-.122.634-.122.405 0 .721.108.948.324.226.216.34.55.34 1.002 0 .102-.007.215-.021.34-.014.125-.03.244-.05.36l-.579 3.289a3.608 3.608 0 0 1-.517.04c-.074 0-.157-.003-.248-.01a1.924 1.924 0 0 1-.238-.03l.547-3.118a3.484 3.484 0 0 0 .06-.577c0-.27-.061-.462-.187-.577-.125-.115-.292-.172-.501-.172a.996.996 0 0 0-.538.167 1.842 1.842 0 0 0-.497.491 3.674 3.674 0 0 0-.42.8 5.756 5.756 0 0 0-.3 1.093l-.334 1.893a3.629 3.629 0 0 1-.517.04c-.074 0-.157-.003-.249-.01a1.93 1.93 0 0 1-.238-.03z"/></g><g><path fill="#fff" d="M80.062 67.446c-.628 0-1.101-.173-1.42-.521-.317-.348-.476-.838-.476-1.473 0-.37.057-.76.172-1.169.115-.408.293-.78.533-1.113.24-.334.54-.611.902-.83.361-.22.79-.33 1.283-.33.635 0 1.112.176 1.43.527.317.35.476.844.476 1.478 0 .378-.058.769-.172 1.174-.115.405-.291.775-.528 1.109a2.897 2.897 0 0 1-.902.825c-.365.215-.798.323-1.298.323m.101-.8c.318 0 .59-.086.816-.257a2 2 0 0 0 .553-.654c.142-.263.247-.547.315-.855.067-.307.1-.595.1-.865 0-.384-.085-.678-.258-.88-.172-.203-.417-.304-.734-.304-.318 0-.589.087-.812.263a2.078 2.078 0 0 0-.547.658 3.137 3.137 0 0 0-.31.855 4.177 4.177 0 0 0-.096.855c0 .385.083.678.249.881.165.202.407.304.724.304"/></g><g><path fill="#fff" d="M85.112 62.132a3.629 3.629 0 0 1 .517-.04 3.047 3.047 0 0 1 .486.04l-.548 3.118c-.04.216-.06.408-.06.578 0 .27.062.461.187.576.125.115.292.172.502.172a.991.991 0 0 0 .537-.167 1.84 1.84 0 0 0 .497-.49c.156-.217.296-.484.421-.8.125-.318.225-.682.3-1.094l.334-1.893a3.443 3.443 0 0 1 .765-.03c.092.007.171.017.238.03l-.537 3.007c-.074.405-.133.752-.177 1.042-.044.29-.066.543-.066.76a3.108 3.108 0 0 0 .02.394 2.873 2.873 0 0 1-.705.03 1.982 1.982 0 0 1-.228-.03c-.027-.088-.04-.242-.04-.465 0-.128.008-.25.025-.364.017-.116.036-.227.056-.335a2.273 2.273 0 0 1-.284.44 2.338 2.338 0 0 1-.968.714c-.2.08-.41.122-.634.122-.406 0-.722-.108-.948-.324-.227-.216-.34-.55-.34-1.002 0-.102.007-.215.02-.34.014-.124.031-.244.051-.359z"/></g><g><path fill="#fff" d="M91.876 64.885a3.46 3.46 0 0 1-.325-.152 1.178 1.178 0 0 1-.552-.592 1.279 1.279 0 0 1-.097-.521c0-.25.051-.474.152-.673.102-.2.244-.368.426-.506.183-.139.4-.244.654-.319.253-.074.536-.112.847-.112.277 0 .54.03.79.092.25.06.447.128.588.202a2.498 2.498 0 0 1-.294.76 3.189 3.189 0 0 0-.476-.168 2.374 2.374 0 0 0-.649-.086c-.29 0-.532.05-.725.152-.193.102-.289.277-.289.526 0 .155.046.285.137.39.091.105.255.205.492.298l.223.102c.128.06.262.125.4.192.139.068.264.15.376.248.11.098.202.216.273.354.071.139.107.31.107.512 0 .324-.061.602-.183.835a1.622 1.622 0 0 1-.502.577c-.212.151-.46.265-.74.339-.28.074-.583.111-.907.111-.27 0-.536-.023-.796-.07a2.88 2.88 0 0 1-.644-.183c.013-.148.039-.29.076-.425s.093-.263.167-.384c.176.074.382.133.619.176.236.045.456.066.658.066.17 0 .328-.015.478-.045.148-.03.276-.078.385-.142a.728.728 0 0 0 .258-.258.782.782 0 0 0 .097-.405c0-.21-.061-.366-.183-.47a1.809 1.809 0 0 0-.517-.289z"/></g><g><path fill="#fff" d="M99.214 62.931h-.841c0-.135.008-.265.025-.39.017-.124.052-.26.106-.41h.842l.05-.293c.116-.682.34-1.191.675-1.529.334-.337.806-.505 1.414-.505a2.57 2.57 0 0 1 .812.121c-.04.175-.083.322-.127.44s-.1.242-.167.37a2.263 2.263 0 0 0-.234-.071 1.15 1.15 0 0 0-.284-.03c-.141 0-.27.018-.385.055a.769.769 0 0 0-.31.192c-.09.091-.17.217-.237.375a2.68 2.68 0 0 0-.162.602 1.07 1.07 0 0 0-.03.137c-.008.044-.018.09-.031.136h1.247c0 .142-.01.274-.025.395a2.02 2.02 0 0 1-.107.405h-1.247l-.78 4.423c-.082.453-.182.834-.3 1.145-.119.31-.265.561-.441.754a1.53 1.53 0 0 1-.613.415 2.406 2.406 0 0 1-.816.126c-.15 0-.291-.012-.427-.035a1.83 1.83 0 0 1-.354-.097c.027-.155.06-.295.101-.42a2.03 2.03 0 0 1 .162-.369 1.397 1.397 0 0 0 .907.03.686.686 0 0 0 .33-.242c.095-.122.181-.292.258-.512.078-.22.148-.504.209-.855z"/></g><g><path fill="#fff" d="M106.335 65.118c-.075.405-.134.753-.178 1.043a5.2 5.2 0 0 0-.066.759 1.713 1.713 0 0 0 .03.395 2.506 2.506 0 0 1-.243.03 2.82 2.82 0 0 1-.7-.03 2.336 2.336 0 0 1-.03-.228 2.457 2.457 0 0 1 .015-.592 5.65 5.65 0 0 1 .056-.344 2.601 2.601 0 0 1-.715.865c-.159.125-.337.228-.537.309-.2.08-.414.121-.644.121-.446 0-.782-.146-1.009-.44-.226-.293-.34-.694-.34-1.2 0-.479.075-.946.224-1.402.148-.455.368-.86.659-1.215a3.28 3.28 0 0 1 1.085-.855c.432-.216.936-.324 1.51-.324.244 0 .488.019.735.056.247.037.465.09.655.157zm-.578-2.217a1.538 1.538 0 0 0-.254-.04 3.886 3.886 0 0 0-.294-.01c-.338 0-.64.077-.908.232a2.276 2.276 0 0 0-.689.622c-.192.26-.34.553-.441.88a3.393 3.393 0 0 0-.152 1.007c0 .324.057.575.172.753a.574.574 0 0 0 .517.268c.21 0 .413-.067.609-.202a2.09 2.09 0 0 0 .537-.562c.162-.238.302-.518.42-.84.12-.32.212-.662.28-1.025z"/></g><g><path fill="#fff" d="M108.96 62.132a3.629 3.629 0 0 1 .517-.04 3.047 3.047 0 0 1 .486.04l-.548 3.118c-.04.216-.06.408-.06.578 0 .27.062.461.187.576.125.115.292.172.502.172a.991.991 0 0 0 .537-.167 1.84 1.84 0 0 0 .497-.49c.155-.217.296-.484.42-.8.126-.318.225-.682.3-1.094l.335-1.893a3.444 3.444 0 0 1 .765-.03c.092.007.17.017.238.03l-.537 3.007c-.075.405-.134.752-.178 1.042-.044.29-.065.543-.065.76a3.108 3.108 0 0 0 .02.394 2.873 2.873 0 0 1-.705.03 1.982 1.982 0 0 1-.228-.03c-.027-.088-.04-.242-.04-.465 0-.128.008-.25.025-.364.017-.116.036-.227.056-.335a2.273 2.273 0 0 1-.284.44 2.338 2.338 0 0 1-.969.714c-.199.08-.41.122-.633.122-.406 0-.722-.108-.949-.324-.226-.216-.339-.55-.339-1.002 0-.102.007-.215.02-.34.014-.124.03-.244.05-.359z"/></g><g><path fill="#fff" d="M115.287 62.931h-.821c0-.135.01-.265.03-.39.021-.124.058-.26.112-.41h.811c.034-.175.064-.354.091-.536a3.86 3.86 0 0 0 .04-.567v-.162c.136-.067.298-.118.488-.152.189-.033.35-.05.486-.05a3.54 3.54 0 0 1 .02.375c0 .208-.026.469-.08.779l-.061.313h1.307c0 .15-.01.286-.03.41-.02.125-.054.255-.101.39h-1.298l-.395 2.197a8.893 8.893 0 0 0-.091.48 2.79 2.79 0 0 0-.041.45c0 .203.052.344.157.421a.692.692 0 0 0 .42.117c.115 0 .22-.009.315-.026.094-.017.189-.039.284-.065a1.603 1.603 0 0 1 .07.486v.146c0 .05-.003.103-.01.157a2.82 2.82 0 0 1-.8.111 3.59 3.59 0 0 1-.593-.045 1.198 1.198 0 0 1-.462-.172.852.852 0 0 1-.299-.344c-.071-.146-.106-.336-.106-.572 0-.128.011-.265.035-.41l.076-.451z"/></g></g></g></g></svg>