<svg xmlns="http://www.w3.org/2000/svg" width="191" height="86" viewBox="0 0 191 86"><g><g><g><g><path fill="#e8454f" d="M183.93 19.11c.216 0 1.076-.355 1.363-.426l5.107-.426.502-.426-1.363-.426c-.502-.142-5.537-1.136-6.039-1.349-.932-.355-1.506-1.278-2.653-1.278-.36 0-.718-.071-.861.426-.43 0-.79-.07-1.22-.07-1.17-.04-2.395-.077-3.644-.097a1.119 1.119 0 0 0-.472-.005c-3.128-.037-6.381.06-9.297.598-.933.142-1.865.355-1.865 1.349 0 .923 2.223 2.627 3.156 2.627h8.326c3.21 6.902 11.556 20.63 2.784 35.928-6.817 11.888-20.198 12.133-25.897 11.044-9.273-1.771-13.851-3.463-21.808-7.605-4.996-2.6 6.942 6.818 20.893 10.052 7.893 1.83 26.253 5.509 35.167-8.028 7.966-12.097 2.494-23.724-4.502-37.301a62.08 62.08 0 0 0-2.288-4.09h4.611z"/></g><g><path fill="#e8454f" d="M174.651 4.15a4.021 4.021 0 0 1-4.018 4.025 4.022 4.022 0 0 1-4.018-4.025c0-2.223 1.8-4.026 4.018-4.026a4.022 4.022 0 0 1 4.018 4.026"/></g><g><path fill="#09a24c" d="M11.516 46.567v-.723C5.49 41.109.283 27.824.283 19.735c4.079 0 6.087 6.182 7.404 9.141.314.855 3.452 8.024 3.829 8.945.25.525 1.702.846 1.702.846h.439l3.82-8.936c1.004-1.973 4.267-7.694 6.4-7.694 1.318 0 2.7.657 3.452 1.841l1.01 2.335c0 5.722-5.738 13.482-8.625 17.888-.376.657-2.614 3.584-2.614 4.176v.263c0 .395.377 3.683.377 4.012.126 1.644.816 9.141.879 10.72.062 1.183-.314 2.301-1.507 2.301-5.333 0-5.773-7.431-5.773-11.113 0-2.763.44-5.328.44-7.893"/></g><g><path fill="#09a24c" d="M31.29 54.73h-.314c-.879 0-2.636 0-2.636-1.005 0-1.383 9.162-3.52 9.727-3.71-.063-1.256-.063-6.914 0-8.172.125-3.206 2.133-18.734 5.396-18.734 1.444 0 3.075.252 4.33 1.195 4.205 3.269 6.777 9.744 8.974 14.459.878 1.949 4.142 9.052 4.644 10.058.313.818 2.008 4.904 2.322 5.846.125.315.376 1.446.376 1.572 0 .503-.502 1.823-1.13 2.011-1.443.315-5.145-6.223-5.836-7.48-1.004-1.635-3.702-6.538-3.953-6.978-1.067-2.2-6.275-12.573-7.342-14.836-1.506 2.137-1.82 8.864-1.945 12.196v.691c-.063 1.006.125 5.532.125 6.475 2.761 0 5.334-1.006 8.033-1.006h.753c-2.95 1.635-6.276 2.515-9.288 4.275l.377 7.04v1.258c-5.523 0-4.581-6.79-5.836-6.79-2.26 0-4.456 1.636-6.778 1.636"/></g><g><path fill="#09a24c" d="M79.203 33.23c-.125.502-.753 4.211-.815 4.714l-1.13 5.846c-2.322 9.116-3.012 10.94-4.58 10.94-.377 0-1.13.125-1.318-.44v-3.647c0-5.658.627-11.19 2.007-16.597.189-.691 1.507-5.343 1.946-6.663l.753-1.886c0-.189-.251-1.006-.377-1.195h.377c1.318 0 3.263.692 3.891 1.95.125.188.313 1.76.376 1.948.628 2.137 2.322 3.96 3.514 5.846 3.326 5.218 6.652 11.693 10.92 16.345 0-1.131.25-6.6.375-7.795 0-.629.315-3.332.377-3.835.251-2.012 1.318-8.864 1.569-9.807.188-.88 1.192-5.28 1.569-6.223.314-1.07.69-1.95 1.945-1.95 1.192 0 2.385 1.447 3.075 2.327l.377.44c.627.754.439 2.954.439 3.583 0 5.972-1.13 11.882-1.945 17.854-.126.754-.063 12.07-2.51 12.07-7.28 0-17.32-20.243-20.458-24.58-.125.126-.377.628-.377.754"/></g><g><path fill="#e8454f" d="M110.827 54.73h-.314c-.879 0-2.636 0-2.636-1.005 0-1.383 9.163-3.52 9.727-3.71-.062-1.256-.062-6.914 0-8.172.125-3.206 2.134-18.734 5.397-18.734 1.443 0 3.074.252 4.33 1.195 4.204 3.269 6.777 9.744 8.973 14.459.878 1.949 4.142 9.052 4.644 10.058.313.818 2.008 4.904 2.322 5.846.125.315.376 1.446.376 1.572 0 .503-.502 1.823-1.129 2.011-1.444.315-5.146-6.223-5.836-7.48-1.004-1.635-3.703-6.538-3.954-6.978-1.066-2.2-6.275-12.573-7.342-14.836-1.506 2.137-1.82 8.864-1.945 12.196v.691c-.063 1.006.126 5.532.126 6.475 2.76 0 5.333-1.006 8.032-1.006h.753c-2.95 1.635-6.276 2.515-9.288 4.275l.377 7.04v1.258c-5.523 0-4.581-6.79-5.836-6.79-2.26 0-4.456 1.636-6.777 1.636"/></g><g><path fill="#fed460" d="M155.584 37.63h7.261c2.185 0 5.315 1.948 6.672 3.583-2.125 2.514-4.841 2.577-7.97 2.577-3.542 0-6.376-.314-7.616-4.212v-1.446c.413-.189 1.299-.503 1.653-.503"/></g><g><path fill="#1b1c20" d="M2.24 73.772a4.423 4.423 0 0 1 .968-.037c.1.008.199.02.298.037L2.14 81.594h3.327c-.016.216-.037.41-.061.584a2.258 2.258 0 0 1-.15.535H.676z"/></g><g><path fill="#1b1c20" d="M8.559 80.176c.025.556.165.975.422 1.256.256.283.654.423 1.192.423.331 0 .645-.04.943-.118.298-.08.567-.164.807-.255.075.124.128.274.161.448.033.173.05.347.05.522a3.023 3.023 0 0 1-.453.162 7.058 7.058 0 0 1-1.148.217c-.199.02-.381.032-.547.032-.488 0-.9-.065-1.235-.194a2.125 2.125 0 0 1-.819-.534 2.061 2.061 0 0 1-.46-.809 3.442 3.442 0 0 1-.142-1.013c0-.505.085-1.005.254-1.499a4.26 4.26 0 0 1 .733-1.324c.319-.39.699-.704 1.142-.945.442-.24.937-.36 1.484-.36.546 0 .978.134 1.297.403.318.27.477.629.477 1.076 0 .365-.089.682-.266.952a2.3 2.3 0 0 1-.739.69 4.638 4.638 0 0 1-1.11.472 10.51 10.51 0 0 1-1.398.299zm.782-1.045c.422-.075.771-.159 1.049-.254a2.85 2.85 0 0 0 .664-.312c.165-.11.282-.23.348-.354.066-.124.099-.26.099-.41a.603.603 0 0 0-.199-.467c-.132-.12-.323-.18-.57-.18-.266 0-.51.06-.733.18-.224.12-.425.278-.602.473a2.849 2.849 0 0 0-.453.671c-.125.253-.22.513-.286.777z"/></g><g><path fill="#1b1c20" d="M15.723 79.716a4.228 4.228 0 0 1-.397-.186 1.437 1.437 0 0 1-.676-.727 1.575 1.575 0 0 1-.119-.641c0-.307.063-.583.186-.828.124-.244.299-.451.522-.621.223-.17.49-.3.8-.392a3.66 3.66 0 0 1 1.037-.137c.34 0 .662.038.968.112.306.075.546.158.72.25a3.076 3.076 0 0 1-.36.932 3.874 3.874 0 0 0-.583-.205 2.893 2.893 0 0 0-.795-.106c-.356 0-.651.062-.887.186-.236.125-.354.34-.354.647 0 .19.056.35.168.479.111.128.312.251.602.366l.273.125.49.236c.17.083.323.185.46.305.136.12.248.266.335.435.087.17.13.38.13.628 0 .398-.075.74-.224 1.027a1.99 1.99 0 0 1-.614.708c-.26.186-.563.326-.906.417a4.303 4.303 0 0 1-1.111.137c-.331 0-.656-.03-.975-.088a3.512 3.512 0 0 1-.788-.224 2.97 2.97 0 0 1 .093-.522c.045-.165.114-.323.205-.472.215.091.468.163.757.217.29.054.559.081.807.081.207 0 .402-.018.584-.056a1.51 1.51 0 0 0 .471-.174.887.887 0 0 0 .317-.317.957.957 0 0 0 .118-.498c0-.256-.075-.449-.223-.578a2.215 2.215 0 0 0-.634-.354z"/></g><g><path fill="#0973ba" d="M24.746 77.315h-.77c0-.165.01-.328.031-.485.02-.157.065-.323.13-.498h1.987l-1.117 6.38c-.091.017-.197.027-.317.031a8.495 8.495 0 0 1-.602 0 2.077 2.077 0 0 1-.285-.03zm.05-2.984c.04-.216.095-.436.16-.66a5.294 5.294 0 0 1 1.416 0 4.566 4.566 0 0 1-.074.69c-.042.22-.095.438-.162.653-.116.017-.24.027-.372.032a9.44 9.44 0 0 1-.683 0 2.584 2.584 0 0 1-.348-.032c0-.24.021-.468.063-.683z"/></g><g><path fill="#0973ba" d="M28.446 79.02c.091-.497.164-.925.217-1.281.054-.357.081-.667.081-.933a2.168 2.168 0 0 0-.037-.485 3.9 3.9 0 0 1 .596-.05 3.541 3.541 0 0 1 .558.05c.017.066.03.143.037.23a3.748 3.748 0 0 1-.018.79c-.02.14-.043.277-.068.41.082-.174.198-.354.347-.54a2.868 2.868 0 0 1 1.186-.878c.244-.099.503-.149.775-.149.497 0 .884.133 1.161.398.277.266.416.676.416 1.231 0 .125-.008.264-.025.417a6.68 6.68 0 0 1-.062.442l-.707 4.041a4.404 4.404 0 0 1-.633.05c-.092 0-.193-.004-.305-.013a2.345 2.345 0 0 1-.291-.037l.67-3.83a4.29 4.29 0 0 0 .074-.709c0-.332-.076-.568-.23-.71-.152-.14-.357-.21-.614-.21-.223 0-.442.068-.658.205a2.26 2.26 0 0 0-.608.603 4.52 4.52 0 0 0-.515.983 7.09 7.09 0 0 0-.366 1.343l-.41 2.325a4.43 4.43 0 0 1-.633.05 4.17 4.17 0 0 1-.304-.013 2.353 2.353 0 0 1-.292-.037z"/></g><g><path fill="#0973ba" d="M36.651 77.315h-1.03c0-.165.01-.325.03-.479.021-.153.065-.32.131-.503h1.03l.062-.36c.141-.838.416-1.464.826-1.879.41-.414.987-.621 1.731-.621a3.136 3.136 0 0 1 .994.15c-.05.215-.102.395-.155.54a4.035 4.035 0 0 1-.205.454 2.81 2.81 0 0 0-.286-.087 1.408 1.408 0 0 0-.348-.038c-.173 0-.33.024-.47.069a.942.942 0 0 0-.38.236c-.111.112-.209.266-.291.46a3.284 3.284 0 0 0-.199.74 1.32 1.32 0 0 0-.037.168c-.008.054-.02.11-.037.168h1.527c0 .174-.011.335-.031.485-.021.15-.065.315-.13.497h-1.528L36.9 82.75a7.988 7.988 0 0 1-.366 1.405c-.145.381-.325.69-.54.927a1.874 1.874 0 0 1-.75.51 2.937 2.937 0 0 1-1 .155c-.182 0-.356-.014-.522-.043a2.23 2.23 0 0 1-.434-.119c.033-.19.074-.362.124-.516.05-.153.116-.304.198-.453a1.707 1.707 0 0 0 1.111.037.843.843 0 0 0 .404-.298c.116-.15.221-.36.316-.629.096-.27.18-.62.255-1.05z"/></g><g><path fill="#0973ba" d="M42.686 82.863c-.77 0-1.348-.213-1.738-.641-.388-.427-.583-1.03-.583-1.81 0-.455.07-.934.211-1.436a4.34 4.34 0 0 1 .652-1.368c.293-.41.662-.75 1.104-1.02.443-.269.967-.404 1.57-.404.779 0 1.362.216 1.751.647.39.431.584 1.037.584 1.816 0 .464-.07.945-.211 1.442a4.444 4.444 0 0 1-.646 1.362c-.29.41-.658.748-1.105 1.014-.447.265-.976.398-1.589.398m.125-.983c.388 0 .722-.106.999-.317.277-.211.503-.479.676-.802a4.04 4.04 0 0 0 .386-1.05c.082-.378.123-.733.123-1.064 0-.472-.105-.834-.316-1.082-.211-.249-.511-.373-.9-.373-.39 0-.72.107-.993.323a2.555 2.555 0 0 0-.67.809c-.175.323-.3.673-.38 1.05a5.171 5.171 0 0 0-.117 1.051c0 .473.101.833.304 1.082.202.249.499.373.888.373"/></g><g><path fill="#0973ba" d="M49.413 79.716a4.228 4.228 0 0 1-.397-.186 1.437 1.437 0 0 1-.676-.727 1.575 1.575 0 0 1-.118-.641c0-.307.062-.583.186-.828.124-.244.298-.451.521-.621.224-.17.49-.3.801-.392a3.66 3.66 0 0 1 1.037-.137c.339 0 .662.038.968.112.306.075.546.158.72.25a3.076 3.076 0 0 1-.36.932 3.874 3.874 0 0 0-.584-.205 2.893 2.893 0 0 0-.794-.106c-.356 0-.652.062-.888.186-.236.125-.353.34-.353.647 0 .19.055.35.167.479.112.128.313.251.602.366l.273.125.49.236c.17.083.323.185.46.305.136.12.248.266.335.435.087.17.13.38.13.628 0 .398-.074.74-.223 1.027a1.99 1.99 0 0 1-.614.708c-.261.186-.563.326-.907.417a4.303 4.303 0 0 1-1.11.137c-.332 0-.657-.03-.975-.088a3.512 3.512 0 0 1-.788-.224 2.97 2.97 0 0 1 .093-.522c.045-.165.113-.323.204-.472.216.091.468.163.758.217.29.054.558.081.807.081.207 0 .401-.018.583-.056a1.51 1.51 0 0 0 .472-.174.887.887 0 0 0 .316-.317.957.957 0 0 0 .118-.498c0-.256-.074-.449-.223-.578a2.215 2.215 0 0 0-.633-.354z"/></g><g><path fill="#1b1c20" d="M61.132 81.409c-.1.167-.222.334-.366.504a3.15 3.15 0 0 1-.497.467c-.186.14-.393.257-.62.348a1.964 1.964 0 0 1-.74.137c-.545 0-.957-.182-1.234-.548-.278-.364-.416-.858-.416-1.48 0-.589.09-1.161.273-1.717a4.575 4.575 0 0 1 .807-1.487 4.018 4.018 0 0 1 1.328-1.05c.53-.266 1.142-.399 1.837-.399.307 0 .609.025.906.075.299.05.567.108.808.174l-1.614 9.219a3.088 3.088 0 0 1-.31.037 4.736 4.736 0 0 1-.299.012c-.09 0-.192-.004-.304-.012a3.12 3.12 0 0 1-.304-.037zm.748-4.13a1.613 1.613 0 0 0-.304-.05 5 5 0 0 0-.367-.013c-.414 0-.785.096-1.112.286-.328.19-.609.444-.845.758a3.488 3.488 0 0 0-.54 1.075 4.15 4.15 0 0 0-.187 1.237c0 .397.072.708.217.932a.703.703 0 0 0 .628.335c.257 0 .505-.082.746-.248.24-.166.46-.395.658-.69.2-.294.371-.638.516-1.032.145-.393.259-.814.342-1.26z"/></g><g><path fill="#1b1c20" d="M65.738 76.334a4.44 4.44 0 0 1 .633-.05 3.73 3.73 0 0 1 .596.05l-.67 3.83c-.05.265-.075.502-.075.71 0 .331.076.567.23.708.153.141.357.212.614.212.224 0 .443-.069.658-.206.215-.137.418-.337.608-.603.19-.265.362-.593.516-.982.152-.39.274-.838.366-1.344l.41-2.325a4.2 4.2 0 0 1 .937-.037c.111.008.208.02.291.037l-.658 3.693a42.65 42.65 0 0 0-.217 1.281 6.31 6.31 0 0 0-.08.933 3.834 3.834 0 0 0 .024.485 3.509 3.509 0 0 1-.863.037 2.41 2.41 0 0 1-.279-.037c-.033-.108-.05-.298-.05-.571 0-.158.01-.308.031-.448.021-.142.044-.278.069-.411a2.791 2.791 0 0 1-.348.541 2.878 2.878 0 0 1-1.185.877c-.244.099-.503.149-.776.149-.497 0-.884-.132-1.161-.398-.278-.266-.416-.676-.416-1.23 0-.126.008-.264.025-.418.016-.153.037-.3.062-.441z"/></g><g><path fill="#1b1c20" d="M74.143 73.782c.19-.033.393-.05.608-.05.108 0 .215.005.323.013.107.008.207.02.298.037l-1.229 2.773c-.116.025-.225.04-.33.044a6.745 6.745 0 0 1-.595 0 1.208 1.208 0 0 1-.28-.044z"/></g><g><path fill="#1b1c20" d="M77.147 77.315h-.77c0-.165.01-.328.031-.485.02-.157.064-.323.13-.498h1.987l-1.118 6.38c-.09.017-.196.027-.316.031a8.508 8.508 0 0 1-.602 0 2.077 2.077 0 0 1-.286-.03zm.05-2.984c.04-.216.095-.436.16-.66a5.273 5.273 0 0 1 1.416 0 4.566 4.566 0 0 1-.074.69c-.042.22-.096.438-.162.653-.116.017-.24.027-.372.032a9.44 9.44 0 0 1-.683 0 2.584 2.584 0 0 1-.348-.032c0-.24.021-.468.063-.683z"/></g><g><path fill="#1b1c20" d="M81.23 76.157c.083-.464.147-.864.193-1.2a8.82 8.82 0 0 0 .08-.902v-.236a2.59 2.59 0 0 0-.012-.224c.09-.017.2-.029.329-.037a3.712 3.712 0 0 1 .9.037c.016.075.025.15.025.224v.236c0 .092-.007.201-.019.33s-.027.263-.043.404c-.017.14-.038.286-.062.435-.026.15-.05.29-.075.423l-.968 5.248c-.025.141-.038.253-.038.336a.75.75 0 0 0 .056.317.408.408 0 0 0 .143.174.45.45 0 0 0 .192.069 1.54 1.54 0 0 0 .46-.012c.095-.017.175-.034.242-.05a2.369 2.369 0 0 1 .105.864.574.574 0 0 0-.006.08 2.305 2.305 0 0 1-.453.094c-.178.02-.353.031-.528.031-.215 0-.412-.02-.589-.063a1.073 1.073 0 0 1-.46-.223 1.046 1.046 0 0 1-.297-.43c-.07-.177-.106-.399-.106-.665 0-.157.017-.323.05-.497s.066-.344.1-.51z"/></g><g><path fill="#1b1c20" d="M88.59 79.02c.092-.497.164-.925.217-1.281.054-.357.081-.667.081-.933a2.168 2.168 0 0 0-.037-.485 3.9 3.9 0 0 1 .596-.05 3.541 3.541 0 0 1 .558.05c.017.066.03.143.038.23a3.748 3.748 0 0 1-.019.79 9.51 9.51 0 0 1-.069.41c.084-.174.2-.354.348-.54a2.868 2.868 0 0 1 1.186-.878c.244-.099.503-.149.776-.149.497 0 .883.133 1.16.398.278.266.416.676.416 1.231 0 .125-.008.264-.024.417a6.68 6.68 0 0 1-.063.442l-.707 4.041a4.404 4.404 0 0 1-.633.05c-.091 0-.193-.004-.304-.013a2.345 2.345 0 0 1-.292-.037l.67-3.83a4.29 4.29 0 0 0 .075-.709c0-.332-.077-.568-.23-.71-.153-.14-.358-.21-.614-.21-.224 0-.443.068-.658.205a2.26 2.26 0 0 0-.609.603 4.52 4.52 0 0 0-.515.983 7.09 7.09 0 0 0-.366 1.343l-.41 2.325a4.43 4.43 0 0 1-.633.05 4.17 4.17 0 0 1-.304-.013 2.353 2.353 0 0 1-.292-.037z"/></g><g><path fill="#1b1c20" d="M98.025 82.863c-.77 0-1.349-.213-1.738-.641-.39-.427-.584-1.03-.584-1.81 0-.455.07-.934.211-1.436.141-.501.359-.957.652-1.368.294-.41.662-.75 1.105-1.02.442-.269.966-.404 1.57-.404.778 0 1.362.216 1.75.647.39.431.584 1.037.584 1.816 0 .464-.07.945-.21 1.442-.142.498-.357.952-.647 1.362-.29.41-.657.748-1.105 1.014-.446.265-.976.398-1.588.398m.124-.983a1.6 1.6 0 0 0 .999-.317c.277-.211.503-.479.677-.802a4.04 4.04 0 0 0 .385-1.05c.083-.378.124-.733.124-1.064 0-.472-.106-.834-.317-1.082-.21-.249-.51-.373-.9-.373-.389 0-.72.107-.993.323a2.551 2.551 0 0 0-.67.809c-.174.323-.3.673-.379 1.05a5.149 5.149 0 0 0-.118 1.051c0 .473.102.833.304 1.082.203.249.499.373.888.373"/></g><g><path fill="#1b1c20" d="M104.207 76.334a4.432 4.432 0 0 1 .633-.05 3.721 3.721 0 0 1 .595.05l-.67 3.83c-.05.265-.074.502-.074.71 0 .331.076.567.23.708.153.141.357.212.614.212.223 0 .443-.069.658-.206.215-.137.418-.337.608-.603.19-.265.362-.593.515-.982.153-.39.275-.838.367-1.344l.41-2.325a4.205 4.205 0 0 1 .937-.037c.112.008.209.02.291.037l-.658 3.693a41.74 41.74 0 0 0-.217 1.281c-.054.357-.08.668-.08.933a3.834 3.834 0 0 0 .024.485 3.509 3.509 0 0 1-.863.037 2.417 2.417 0 0 1-.28-.037c-.032-.108-.048-.298-.048-.571 0-.158.01-.308.03-.448.021-.142.044-.278.069-.411a2.793 2.793 0 0 1-.348.541 2.867 2.867 0 0 1-1.185.877c-.244.099-.503.149-.776.149-.497 0-.884-.132-1.161-.398s-.416-.676-.416-1.23c0-.126.008-.264.025-.418.016-.153.037-.3.062-.441z"/></g><g><path fill="#1b1c20" d="M112.489 79.716a4.228 4.228 0 0 1-.398-.186 1.448 1.448 0 0 1-.676-.727 1.575 1.575 0 0 1-.118-.641c0-.307.062-.583.186-.828.124-.244.298-.451.522-.621.223-.17.49-.3.8-.392.31-.091.656-.137 1.037-.137.34 0 .662.038.968.112.306.075.546.158.72.25a3.076 3.076 0 0 1-.36.932 3.896 3.896 0 0 0-.583-.205 2.898 2.898 0 0 0-.795-.106c-.356 0-.652.062-.888.186-.236.125-.353.34-.353.647 0 .19.056.35.167.479.112.128.313.251.602.366l.274.125.49.236c.17.083.322.185.46.305.135.12.247.266.334.435.087.17.13.38.13.628 0 .398-.074.74-.223 1.027a1.99 1.99 0 0 1-.614.708c-.26.186-.563.326-.907.417a4.303 4.303 0 0 1-1.11.137c-.332 0-.657-.03-.975-.088a3.516 3.516 0 0 1-.789-.224c.017-.182.048-.356.094-.522.045-.165.114-.323.204-.472.215.091.468.163.758.217a4.4 4.4 0 0 0 .806.081c.208 0 .402-.018.585-.056a1.51 1.51 0 0 0 .47-.174.893.893 0 0 0 .317-.317.964.964 0 0 0 .119-.498c0-.256-.075-.449-.224-.578a2.213 2.213 0 0 0-.634-.354z"/></g><g><path fill="#0973ba" d="M121.474 77.315h-1.03c0-.165.01-.325.03-.479.02-.153.065-.32.13-.503h1.032l.061-.36c.141-.838.416-1.464.826-1.879.41-.414.987-.621 1.731-.621a3.136 3.136 0 0 1 .994.15c-.05.215-.102.395-.155.54a3.971 3.971 0 0 1-.205.454 2.765 2.765 0 0 0-.286-.087 1.403 1.403 0 0 0-.348-.038c-.173 0-.33.024-.471.069a.941.941 0 0 0-.379.236 1.43 1.43 0 0 0-.291.46 3.302 3.302 0 0 0-.199.74 1.32 1.32 0 0 0-.037.168c-.008.054-.02.11-.037.168h1.527c0 .174-.012.335-.031.485-.022.15-.065.315-.13.497h-1.528l-.956 5.435a7.956 7.956 0 0 1-.366 1.405c-.145.381-.325.69-.54.927a1.874 1.874 0 0 1-.75.51 2.936 2.936 0 0 1-1 .155c-.183 0-.356-.014-.522-.043a2.234 2.234 0 0 1-.434-.119 3.74 3.74 0 0 1 .124-.516c.05-.153.115-.304.198-.453a1.707 1.707 0 0 0 1.111.037.84.84 0 0 0 .404-.298c.116-.15.221-.36.316-.629.096-.27.18-.62.255-1.05z"/></g><g><path fill="#0973ba" d="M130.192 80.002c-.091.497-.164.925-.218 1.281a6.41 6.41 0 0 0-.08.933 2.11 2.11 0 0 0 .038.485c-.093.016-.192.029-.299.037a3.44 3.44 0 0 1-.857-.038 2.88 2.88 0 0 1-.037-.28 3.028 3.028 0 0 1 .019-.727c.02-.157.044-.298.068-.422a3.152 3.152 0 0 1-.36.553 3.19 3.19 0 0 1-.515.51 2.71 2.71 0 0 1-.658.379c-.244.1-.507.15-.789.15-.546 0-.957-.18-1.235-.541-.277-.36-.416-.852-.416-1.474 0-.589.091-1.163.274-1.723a4.56 4.56 0 0 1 .807-1.492 4.02 4.02 0 0 1 1.328-1.05c.53-.266 1.146-.399 1.85-.399.297 0 .597.023.9.069.302.045.569.11.8.192zm-.708-2.724a1.877 1.877 0 0 0-.31-.049 4.742 4.742 0 0 0-.36-.013c-.414 0-.785.096-1.112.286a2.79 2.79 0 0 0-.843.764c-.236.32-.416.68-.54 1.081a4.181 4.181 0 0 0-.187 1.237c0 .398.07.706.211.926.141.22.352.33.633.33.257 0 .505-.083.745-.249.24-.166.46-.395.658-.69.199-.294.37-.638.515-1.032.145-.393.259-.814.342-1.26z"/></g><g><path fill="#0973ba" d="M133.405 76.334a4.432 4.432 0 0 1 .633-.05 3.721 3.721 0 0 1 .596.05l-.67 3.83c-.05.265-.075.502-.075.71 0 .331.076.567.23.708.153.141.357.212.614.212.224 0 .443-.069.658-.206.215-.137.418-.337.608-.603.19-.265.362-.593.516-.982.152-.39.274-.838.366-1.344l.41-2.325a4.206 4.206 0 0 1 .937-.037c.112.008.209.02.291.037l-.657 3.693a41.74 41.74 0 0 0-.218 1.281c-.054.357-.08.668-.08.933a3.834 3.834 0 0 0 .024.485 3.509 3.509 0 0 1-.863.037 2.417 2.417 0 0 1-.279-.037c-.033-.108-.049-.298-.049-.571 0-.158.01-.308.03-.448.021-.142.045-.278.069-.411a2.793 2.793 0 0 1-.348.541 2.867 2.867 0 0 1-1.185.877c-.244.099-.503.149-.776.149-.497 0-.884-.132-1.161-.398s-.415-.676-.415-1.23c0-.126.007-.264.024-.418.017-.153.038-.3.062-.441z"/></g><g><path fill="#0973ba" d="M141.153 77.315h-1.006c0-.165.013-.325.037-.479a2.92 2.92 0 0 1 .137-.503h.993c.042-.216.079-.435.112-.659.033-.224.05-.456.05-.697v-.199a2.2 2.2 0 0 1 .596-.186c.232-.041.43-.062.596-.062a4.374 4.374 0 0 1 .024.46c0 .257-.033.576-.099.957l-.074.386h1.6c0 .183-.012.35-.036.503a2.874 2.874 0 0 1-.124.48h-1.59l-.483 2.698c-.042.19-.08.388-.112.59-.033.204-.05.388-.05.554 0 .249.064.421.192.516.128.095.3.143.516.143.14 0 .268-.01.384-.031a3.44 3.44 0 0 0 .348-.08 1.976 1.976 0 0 1 .087.596v.181c0 .062-.004.126-.012.193a3.443 3.443 0 0 1-.981.136c-.265 0-.507-.019-.726-.056a1.464 1.464 0 0 1-.565-.21 1.045 1.045 0 0 1-.367-.424c-.086-.178-.13-.412-.13-.702 0-.158.015-.326.044-.504.029-.179.06-.363.093-.554z"/></g></g></g></g></svg>